<svg width="24" height="33" viewBox="0 0 24 33" fill="none" xmlns="http://www.w3.org/2000/svg">
<path d="M20.5 25.6729C20.5 24.6812 20.1577 23.8431 19.4729 23.1583C18.7882 22.4736 17.95 22.1312 16.9584 22.1312C16.3917 22.1312 15.8368 22.2611 15.2938 22.5208C14.7507 22.7806 14.3139 23.1701 13.9834 23.6896L13.1334 24.9646L4.20835 24.9646C3.99585 24.9646 3.82467 25.0295 3.69481 25.1594C3.56495 25.2892 3.50002 25.4604 3.50002 25.6729C3.50002 25.8854 3.56495 26.0566 3.69481 26.1865C3.82467 26.3163 3.99585 26.3812 4.20835 26.3812L13.1334 26.3812L13.9834 27.6562C14.3375 28.1757 14.7743 28.5653 15.2938 28.825C15.8132 29.0847 16.3681 29.2146 16.9584 29.2146C17.95 29.2146 18.7882 28.8722 19.4729 28.1875C20.1577 27.5028 20.5 26.6646 20.5 25.6729ZM23.3334 25.6729C23.3334 27.4437 22.7195 28.949 21.4917 30.1885C20.2639 31.4281 18.7528 32.0479 16.9584 32.0479C15.825 32.0479 14.8097 31.7882 13.9125 31.2687C13.0153 30.7493 12.2834 30.0646 11.7167 29.2146L4.20835 29.2146C3.21669 29.2146 2.37849 28.8722 1.69377 28.1875C1.00905 27.5028 0.666687 26.6646 0.666687 25.6729C0.666687 24.6812 1.00905 23.8431 1.69377 23.1583C2.37849 22.4736 3.21669 22.1312 4.20835 22.1312L11.7167 22.1312C12.2834 21.2812 13.0153 20.5965 13.9125 20.0771C14.8097 19.5576 15.825 19.2979 16.9584 19.2979C18.7292 19.2979 20.2344 19.9177 21.474 21.1573C22.7136 22.3969 23.3334 23.9021 23.3334 25.6729ZM16.25 14.0917C15.4709 15.225 14.4674 16.1458 13.2396 16.8542C12.0118 17.5625 10.6542 17.9167 9.16669 17.9167C6.80558 17.9167 4.79863 17.0903 3.14585 15.4375C1.49308 13.7847 0.666686 11.7778 0.666686 9.41666C0.666686 7.05555 1.49307 5.0486 3.14585 3.39583C4.79863 1.74305 6.80557 0.91666 9.16669 0.91666C10.6542 0.91666 12.0118 1.27083 13.2396 1.97916C14.4674 2.68749 15.4709 3.60833 16.25 4.74166L16.25 14.0917ZM13.4167 13.1L13.4167 5.59166C12.85 4.95416 12.2125 4.48784 11.5042 4.1927C10.7959 3.89756 10.0167 3.74999 9.16669 3.74999C7.60835 3.74999 6.27433 4.30485 5.1646 5.41458C4.05488 6.5243 3.50002 7.85833 3.50002 9.41666C3.50002 10.975 4.05488 12.309 5.1646 13.4187C6.27433 14.5285 7.60835 15.0833 9.16669 15.0833C10.0167 15.0833 10.7959 14.9121 11.5042 14.5698C12.2125 14.2274 12.85 13.7375 13.4167 13.1ZM23.3334 9.41666C23.3334 9.98333 23.1209 10.4792 22.6959 10.9042C22.2709 11.3292 21.775 11.5417 21.2084 11.5417L21.2084 7.29166C21.775 7.29166 22.2709 7.50416 22.6959 7.92916C23.1209 8.35416 23.3334 8.84999 23.3334 9.41666ZM20.5 13.6667L17.6667 13.6667L17.6667 5.16666L20.5 5.16666L20.5 13.6667Z" fill="#252525"/>
</svg>
