<svg width="90" height="36" viewBox="0 0 90 36" fill="none" xmlns="http://www.w3.org/2000/svg">
<path d="M66.8579 9.98152C68.8621 9.98152 70.7142 10.1938 72.9611 10.6493L71.36 14.022C70.1151 13.7791 71.2603 13.9895 70.3196 13.8984V14.3844L70.3801 16.3576L70.4102 18.9083C70.4406 19.5457 70.4406 20.1834 70.4712 20.821V22.0963C70.4712 26.1043 70.1372 27.9866 69.1353 29.535C67.6778 31.8125 65.1577 32.9358 61.575 32.9358C59.7531 32.9358 58.1746 32.6626 56.5347 32.0248V27.7134H56.5349C58.1748 28.5635 59.8142 28.958 61.5448 28.958C64.6112 28.958 65.9169 27.7134 65.9169 24.7377V24.6466C65.0061 25.1018 64.0951 25.2842 62.8809 25.2842C58.7818 25.2842 56.1702 22.5819 56.1702 18.3009C56.1702 12.987 60.0266 9.98152 66.8579 9.98152ZM24.4449 10.2851V21.1244C24.4449 24.8591 24.1716 26.6504 23.3519 28.199C22.5927 29.687 21.5906 30.628 19.5261 31.6605L15.1842 29.5958C17.2489 28.6242 18.2508 27.7743 18.8883 26.4682C19.5564 25.1324 19.7692 23.5838 19.7692 19.5153V10.2851H24.4449ZM80.22 9.89043C84.8957 9.89043 87.75 12.8358 87.75 17.6026C87.75 22.4912 84.7747 25.5578 80.0379 25.5578C75.3618 25.5578 72.4773 22.6125 72.4773 17.876C72.4775 12.9568 75.4532 9.89043 80.22 9.89043ZM33.4633 9.95135C35.862 9.95135 37.4407 10.5887 38.1392 11.8337C38.5337 12.532 38.6552 13.4428 38.6552 15.3863V24.8895C36.5599 25.1931 33.9185 25.4058 31.9755 25.4058C28.0588 25.4058 26.2975 24.039 26.2975 21.003C26.2975 17.7236 28.6354 16.2056 34.3741 15.7196V14.6874C34.3741 13.8373 33.9491 13.5339 32.7648 13.5339C31.0343 13.5339 29.091 14.0197 27.269 14.961V11.3477H27.2692C29.3341 10.3764 31.3075 9.95135 33.4633 9.95135ZM17.0064 3.06422V24.7075C14.6077 25.1629 12.8466 25.3451 10.9339 25.3451C5.22552 25.3451 2.25 22.7645 2.25 17.8151C2.25 13.0481 5.40788 9.95135 10.2961 9.95135C11.0551 9.95135 11.632 10.0119 12.3305 10.194V3.06422H17.0064ZM48.2802 9.95135C50.6789 9.95135 52.4096 10.4976 53.4423 11.5605C54.4138 12.5622 54.7172 13.6551 54.7172 15.9935V25.1627H50.0413V16.1756C50.0413 14.3844 49.4341 13.7161 47.7643 13.7161C47.1267 13.7161 46.5499 13.7768 45.6083 14.05V25.1627H40.9326V11.0138C43.6954 10.2851 45.9726 9.95135 48.2802 9.95135ZM34.5867 18.7866C31.4895 19.0902 30.4876 19.5762 30.4876 20.7906C30.4876 21.7014 31.0646 22.1265 32.3398 22.1265C33.0383 22.1265 33.6756 22.066 34.5867 21.9142V18.7866ZM80.1595 13.6553C78.3071 13.6553 77.2441 15.1434 77.2441 17.7238C77.2443 20.3049 78.3071 21.7925 80.1285 21.7925C81.9202 21.7925 82.983 20.3047 82.983 17.7238C82.983 15.1735 81.9506 13.6553 80.1595 13.6553ZM10.7517 13.7161C8.3834 13.7161 7.01699 15.1735 7.01699 17.7238C7.01699 20.2138 8.32268 21.58 10.7214 21.58C11.2373 21.58 11.6625 21.5496 12.3305 21.4588V13.9587C11.784 13.7768 11.3286 13.7161 10.7517 13.7161ZM62.638 14.4141C61.5148 15.0519 60.9376 16.2058 60.9376 17.8453C60.9376 20.1834 62.0917 21.5193 64.1562 21.5193C64.7938 21.5193 65.3101 21.3976 65.9171 21.2157V19.6066C65.9171 19.0601 65.8869 18.4525 65.8869 17.8151L65.8568 15.6595L65.8262 14.1109V13.7464H65.3402C64.4296 13.7161 63.367 13.9587 62.638 14.4141ZM24.4449 3.0891V7.88645H19.7692V3.0891H24.4449Z" fill="#AEB2BA"/>
</svg>
