<svg width="455" height="104" viewBox="0 0 455 104" fill="none" xmlns="http://www.w3.org/2000/svg">
<mask id="mask0_2_205" style="mask-type:alpha" maskUnits="userSpaceOnUse" x="0" y="0" width="104" height="104">
<rect x="-3.05176e-05" y="104" width="104" height="104" transform="rotate(-90 -3.05176e-05 104)" fill="#D9D9D9"/>
</mask>
<g mask="url(#mask0_2_205)">
<path d="M78 80.0581C78 77.0248 76.9528 74.4609 74.8583 72.3664C72.7639 70.272 70.2 69.2248 67.1667 69.2248C65.4333 69.2248 63.7361 69.622 62.075 70.4164C60.4139 71.2109 59.0778 72.4025 58.0667 73.9914L55.4667 77.8914L28.1667 77.8914C27.5167 77.8914 26.993 78.09 26.5958 78.4873C26.1986 78.8845 26 79.4081 26 80.0581C26 80.7081 26.1986 81.2317 26.5958 81.6289C26.993 82.0262 27.5167 82.2248 28.1667 82.2248L55.4667 82.2248L58.0667 86.1248C59.15 87.7137 60.4861 88.9053 62.075 89.6998C63.6639 90.4942 65.3611 90.8914 67.1667 90.8914C70.2 90.8914 72.7639 89.8442 74.8583 87.7498C76.9528 85.6553 78 83.0914 78 80.0581ZM86.6667 80.0581C86.6667 85.4748 84.7889 90.0789 81.0333 93.8706C77.2778 97.6623 72.6556 99.5581 67.1667 99.5581C63.7 99.5581 60.5944 98.7637 57.85 97.1748C55.1056 95.5859 52.8667 93.4914 51.1333 90.8914L28.1667 90.8914C25.1333 90.8914 22.5694 89.8442 20.475 87.7498C18.3805 85.6553 17.3333 83.0914 17.3333 80.0581C17.3333 77.0248 18.3805 74.4609 20.475 72.3664C22.5694 70.272 25.1333 69.2248 28.1667 69.2248L51.1333 69.2248C52.8667 66.6248 55.1056 64.5303 57.85 62.9414C60.5944 61.3525 63.7 60.5581 67.1667 60.5581C72.5833 60.5581 77.1875 62.4539 80.9792 66.2456C84.7708 70.0373 86.6667 74.6414 86.6667 80.0581ZM65 44.6331C62.6167 48.0998 59.5472 50.9164 55.7917 53.0831C52.0361 55.2498 47.8833 56.3331 43.3333 56.3331C36.1111 56.3331 29.9722 53.8053 24.9167 48.7498C19.8611 43.6942 17.3333 37.5553 17.3333 30.3331C17.3333 23.1109 19.8611 16.972 24.9167 11.9164C29.9722 6.86088 36.1111 4.3331 43.3333 4.3331C47.8833 4.3331 52.0361 5.41643 55.7917 7.5831C59.5472 9.74976 62.6167 12.5664 65 16.0331L65 44.6331ZM56.3333 41.5998L56.3333 18.6331C54.6 16.6831 52.65 15.2567 50.4833 14.3539C48.3167 13.4512 45.9333 12.9998 43.3333 12.9998C38.5667 12.9998 34.4861 14.697 31.0917 18.0914C27.6972 21.4859 26 25.5664 26 30.3331C26 35.0998 27.6972 39.1803 31.0917 42.5748C34.4861 45.9692 38.5667 47.6664 43.3333 47.6664C45.9333 47.6664 48.3167 47.1428 50.4833 46.0956C52.65 45.0484 54.6 43.5498 56.3333 41.5998ZM86.6667 30.3331C86.6667 32.0664 86.0167 33.5831 84.7167 34.8831C83.4167 36.1831 81.9 36.8331 80.1667 36.8331L80.1667 23.8331C81.9 23.8331 83.4167 24.4831 84.7167 25.7831C86.0167 27.0831 86.6667 28.5998 86.6667 30.3331ZM78 43.3331L69.3333 43.3331L69.3333 17.3331L78 17.3331L78 43.3331Z" fill="white"/>
</g>
<path d="M183.603 27.1118H188.962V78.5H183.603V27.1118ZM151.448 78.5H146.016V27.1118H151.448V78.5ZM184.117 54.788H150.861V50.0162H184.117V54.788ZM204.634 78.5V39.9588H209.846V78.5H204.634ZM207.276 31.4431C206.2 31.4431 205.294 31.076 204.56 30.3419C203.826 29.6078 203.459 28.7268 203.459 27.6991C203.459 26.6713 203.826 25.8148 204.56 25.1296C205.294 24.3955 206.2 24.0285 207.276 24.0285C208.353 24.0285 209.259 24.3711 209.993 25.0562C210.727 25.7414 211.094 26.5979 211.094 27.6256C211.094 28.7024 210.727 29.6078 209.993 30.3419C209.307 31.076 208.402 31.4431 207.276 31.4431ZM218.623 93.1089C217.056 93.1089 215.564 92.8887 214.144 92.4482C212.676 92.0567 211.453 91.4449 210.474 90.6129L212.309 86.6487C213.875 87.9701 215.882 88.6308 218.329 88.6308C220.384 88.6308 221.951 88.0191 223.027 86.7955C224.153 85.572 224.716 83.7612 224.716 81.3631V39.9588H229.928V81.3631C229.928 84.9358 228.949 87.7744 226.991 89.8788C225.083 92.0322 222.293 93.1089 218.623 93.1089ZM227.359 31.4431C226.282 31.4431 225.376 31.076 224.642 30.3419C223.908 29.6078 223.541 28.7268 223.541 27.6991C223.541 26.6713 223.908 25.8148 224.642 25.1296C225.376 24.3955 226.282 24.0285 227.359 24.0285C228.435 24.0285 229.341 24.3711 230.075 25.0562C230.809 25.7414 231.176 26.5979 231.176 27.6256C231.176 28.7024 230.809 29.6078 230.075 30.3419C229.39 31.076 228.484 31.4431 227.359 31.4431ZM268.646 78.5V69.9842L268.426 68.5894V54.3475C268.426 51.0685 267.496 48.548 265.636 46.7861C263.826 45.0242 261.109 44.1433 257.488 44.1433C254.992 44.1433 252.618 44.5593 250.367 45.3913C248.116 46.2233 246.207 47.3245 244.641 48.6948L242.292 44.804C244.249 43.14 246.598 41.8675 249.339 40.9866C252.08 40.0567 254.967 39.5918 258.002 39.5918C262.994 39.5918 266.836 40.8398 269.527 43.3358C272.268 45.7828 273.638 49.5268 273.638 54.5678V78.5H268.646ZM255.359 78.8671C252.471 78.8671 249.951 78.4021 247.797 77.4722C245.693 76.4934 244.078 75.172 242.952 73.508C241.827 71.7951 241.264 69.8374 241.264 67.6351C241.264 65.6285 241.729 63.8176 242.659 62.2026C243.637 60.5386 245.204 59.2172 247.357 58.2384C249.559 57.2106 252.496 56.6967 256.166 56.6967H269.454V60.5875H256.313C252.594 60.5875 250 61.2482 248.532 62.5696C247.112 63.8911 246.403 65.5306 246.403 67.4882C246.403 69.6906 247.259 71.4525 248.972 72.7739C250.685 74.0953 253.083 74.756 256.166 74.756C259.103 74.756 261.623 74.0953 263.728 72.7739C265.881 71.4035 267.447 69.4459 268.426 66.9009L269.601 70.4981C268.622 73.0431 266.909 75.0741 264.462 76.5913C262.064 78.1085 259.029 78.8671 255.359 78.8671ZM307.69 78.8671C304.313 78.8671 301.279 78.1085 298.587 76.5913C295.895 75.0252 293.766 72.7739 292.2 69.8374C290.634 66.9009 289.851 63.3527 289.851 59.1927C289.851 54.9838 290.634 51.4355 292.2 48.548C293.815 45.6115 295.969 43.3847 298.66 41.8675C301.352 40.3504 304.362 39.5918 307.69 39.5918C311.361 39.5918 314.64 40.4238 317.527 42.0878C320.464 43.7028 322.764 45.9786 324.428 48.9151C326.092 51.8515 326.924 55.2774 326.924 59.1927C326.924 63.0591 326.092 66.4849 324.428 69.4704C322.764 72.4068 320.464 74.7071 317.527 76.3711C314.64 78.0351 311.361 78.8671 307.69 78.8671ZM287.795 78.5V24.0285H293.008V51.3376L292.273 59.1193L292.787 66.9009V78.5H287.795ZM307.323 74.2421C310.064 74.2421 312.511 73.6304 314.664 72.4068C316.817 71.1344 318.53 69.3725 319.803 67.1212C321.075 64.8209 321.712 62.1781 321.712 59.1927C321.712 56.1584 321.075 53.5155 319.803 51.2642C318.53 49.0129 316.817 47.2755 314.664 46.052C312.511 44.7795 310.064 44.1433 307.323 44.1433C304.582 44.1433 302.111 44.7795 299.908 46.052C297.755 47.2755 296.042 49.0129 294.769 51.2642C293.546 53.5155 292.934 56.1584 292.934 59.1927C292.934 62.1781 293.546 64.8209 294.769 67.1212C296.042 69.3725 297.755 71.1344 299.908 72.4068C302.111 73.6304 304.582 74.2421 307.323 74.2421ZM357.444 78.8671C354.116 78.8671 351.106 78.1085 348.414 76.5913C345.722 75.0252 343.569 72.7984 341.954 69.9108C340.388 66.9744 339.605 63.4016 339.605 59.1927C339.605 54.9838 340.388 51.4355 341.954 48.548C343.52 45.6115 345.649 43.3847 348.341 41.8675C351.032 40.3504 354.067 39.5918 357.444 39.5918C361.114 39.5918 364.393 40.4238 367.281 42.0878C370.217 43.7028 372.518 46.0031 374.182 48.9885C375.846 51.9249 376.678 55.3264 376.678 59.1927C376.678 63.108 375.846 66.5339 374.182 69.4704C372.518 72.4068 370.217 74.7071 367.281 76.3711C364.393 78.0351 361.114 78.8671 357.444 78.8671ZM337.549 92.7419V39.9588H342.541V51.5579L342.027 59.2661L342.761 67.0478V92.7419H337.549ZM357.077 74.2421C359.817 74.2421 362.264 73.6304 364.418 72.4068C366.571 71.1344 368.284 69.3725 369.557 67.1212C370.829 64.8209 371.465 62.1781 371.465 59.1927C371.465 56.2073 370.829 53.5889 369.557 51.3376C368.284 49.0864 366.571 47.3245 364.418 46.052C362.264 44.7795 359.817 44.1433 357.077 44.1433C354.336 44.1433 351.864 44.7795 349.662 46.052C347.509 47.3245 345.796 49.0864 344.523 51.3376C343.3 53.5889 342.688 56.2073 342.688 59.1927C342.688 62.1781 343.3 64.8209 344.523 67.1212C345.796 69.3725 347.509 71.1344 349.662 72.4068C351.864 73.6304 354.336 74.2421 357.077 74.2421ZM387.303 78.5V39.9588H392.295V50.4567L391.781 48.6214C392.858 45.6849 394.668 43.4581 397.213 41.9409C399.758 40.3748 402.915 39.5918 406.683 39.5918V44.6572C406.488 44.6572 406.292 44.6572 406.096 44.6572C405.9 44.6082 405.705 44.5838 405.509 44.5838C401.447 44.5838 398.266 45.8318 395.965 48.3278C393.665 50.7748 392.515 54.2741 392.515 58.8256V78.5H387.303ZM431.546 78.8671C427.826 78.8671 424.474 78.0351 421.488 76.3711C418.552 74.6581 416.227 72.3334 414.514 69.3969C412.801 66.4115 411.945 63.0101 411.945 59.1927C411.945 55.3264 412.801 51.9249 414.514 48.9885C416.227 46.052 418.552 43.7518 421.488 42.0878C424.425 40.4238 427.777 39.5918 431.546 39.5918C435.363 39.5918 438.74 40.4238 441.677 42.0878C444.662 43.7518 446.987 46.052 448.651 48.9885C450.364 51.9249 451.22 55.3264 451.22 59.1927C451.22 63.0101 450.364 66.4115 448.651 69.3969C446.987 72.3334 444.662 74.6581 441.677 76.3711C438.691 78.0351 435.314 78.8671 431.546 78.8671ZM431.546 74.2421C434.336 74.2421 436.807 73.6304 438.96 72.4068C441.114 71.1344 442.802 69.3725 444.026 67.1212C445.298 64.8209 445.935 62.1781 445.935 59.1927C445.935 56.1584 445.298 53.5155 444.026 51.2642C442.802 49.0129 441.114 47.2755 438.96 46.052C436.807 44.7795 434.36 44.1433 431.619 44.1433C428.879 44.1433 426.432 44.7795 424.278 46.052C422.125 47.2755 420.412 49.0129 419.139 51.2642C417.867 53.5155 417.231 56.1584 417.231 59.1927C417.231 62.1781 417.867 64.8209 419.139 67.1212C420.412 69.3725 422.125 71.1344 424.278 72.4068C426.432 73.6304 428.854 74.2421 431.546 74.2421Z" fill="white"/>
</svg>
