<svg width="90" height="36" viewBox="0 0 90 36" fill="none" xmlns="http://www.w3.org/2000/svg">
<path d="M82.0488 21.6511L76.0413 11.2469C75.9921 11.1609 75.9005 11.1078 75.8013 11.1078H71.8673C71.8282 11.1078 71.7973 11.1224 71.7636 11.1369C71.7518 11.1351 71.7409 11.1278 71.7291 11.1278H69.5603C69.5612 11.1069 69.5621 10.5615 69.5639 10.5415C69.7202 7.75823 72.1545 7.05286 72.9844 6.9047C73.1161 6.88115 73.2115 6.76579 73.2098 6.632L73.2053 3.73234C73.2052 3.65629 73.1737 3.58364 73.1183 3.53153C73.0629 3.47941 72.9885 3.45242 72.9126 3.45692C71.3364 3.55782 65.8789 4.78858 65.5916 10.5415L65.588 11.1269H63.9191C63.8552 11.1272 63.7941 11.1528 63.749 11.1981C63.704 11.2435 63.6789 11.3048 63.6791 11.3687V14.1793C63.6791 14.3129 63.7864 14.422 63.9191 14.422H65.328C65.4598 14.422 65.568 14.5302 65.568 14.662V26.8833C65.568 27.0332 65.6889 27.1541 65.838 27.1541H69.2648C69.3419 27.1532 69.4148 27.1191 69.4648 27.0605C69.5257 27.0099 69.5612 26.9351 69.5621 26.856V14.672C69.5621 14.5992 69.5921 14.5329 69.6394 14.4838C69.6857 14.4448 69.7442 14.423 69.8048 14.422L73.1126 14.3775C73.2127 14.3764 73.3055 14.4296 73.3553 14.5165L77.4748 21.6521C77.523 21.7359 77.5244 21.8387 77.4784 21.9238L72.0154 32.0872C71.9692 32.1732 71.9714 32.2771 72.0212 32.3611C72.0711 32.445 72.1614 32.4967 72.259 32.4971H76.2004C76.3019 32.4971 76.395 32.4411 76.4431 32.3517L82.0515 21.9238C82.0981 21.8387 82.0971 21.7354 82.0488 21.6511ZM87.7154 11.4914L83.4132 19.4978C83.3655 19.5853 83.2746 19.6405 83.1749 19.6424C83.0753 19.6442 82.9823 19.5925 82.9314 19.5069L80.868 15.9818C80.8188 15.898 80.8171 15.7945 80.8635 15.7091L83.275 11.2442C83.3217 11.1557 83.4131 11.0999 83.5132 11.0988C84.1486 11.0915 86.4874 11.0715 87.4782 11.0824C87.5751 11.0836 87.6642 11.1358 87.7128 11.2196C87.7615 11.3034 87.7624 11.4067 87.7154 11.4914ZM58.757 17.3908H51.0733C50.979 17.3919 50.891 17.3436 50.8414 17.2634C50.7917 17.1832 50.7876 17.0829 50.8307 16.999C51.2379 16.1963 52.4123 14.4456 54.9193 14.4456C57.3808 14.4456 58.577 16.1936 58.9979 16.9962C59.0409 17.0802 59.0372 17.1805 58.988 17.261C58.9389 17.3415 58.8513 17.3907 58.757 17.3908ZM54.9347 10.4952C50.2843 10.4952 46.5148 14.2856 46.5148 18.9606C46.5148 23.6364 50.2843 27.4259 54.9347 27.4259C57.4453 27.4259 60.6886 26.1897 62.482 22.691C62.5237 22.6066 62.519 22.5067 62.4694 22.4266C62.4199 22.3466 62.3326 22.2977 62.2384 22.2974H58.1162C58.0482 22.2978 57.983 22.3245 57.9344 22.372C57.6264 22.666 57.2747 22.9104 56.8918 23.0964C56.3555 23.3564 55.7055 23.5255 54.9184 23.5255C52.4396 23.5255 51.2433 21.8984 50.907 21.0349C50.8766 20.952 50.8887 20.8595 50.9395 20.7873C50.9903 20.7151 51.0733 20.6724 51.1615 20.6731L62.9347 20.6749C63.0703 20.671 63.1834 20.5701 63.2028 20.4358C63.2437 20.1059 63.2992 19.7723 63.3174 19.4323C63.4615 17.1169 62.6433 14.8448 61.0561 13.1528C59.4689 11.4609 57.2537 10.4992 54.9338 10.4952H54.9347ZM37.5604 23.5218C36.0005 23.8842 34.364 23.4146 33.2336 22.2802C32.1013 21.1437 31.6332 19.5046 31.9947 17.9416C32.3728 16.2147 33.7193 14.8646 35.4452 14.482C37.0051 14.1195 38.6416 14.5891 39.7719 15.7237C40.9045 16.86 41.3725 18.4992 41.0109 20.0622C40.6326 21.789 39.2861 23.139 37.5604 23.5218ZM40.1446 11.2887C36.3696 9.63892 33.1745 11.2787 32.1583 11.935C31.6256 12.2804 31.6493 11.1533 31.1402 11.1533H28.1497C28.0779 11.153 28.009 11.1814 27.9582 11.232C27.9074 11.2827 27.8788 11.3515 27.8788 11.4233V32.2726C27.8788 32.4217 27.9997 32.5435 28.1488 32.5435H31.5447C31.6165 32.5435 31.6853 32.5149 31.736 32.4641C31.7866 32.4133 31.8149 32.3444 31.8147 32.2726V26.3324C31.8147 26.1234 32.041 25.9915 32.2201 26.0988C32.9691 26.5533 34.6907 27.4268 36.8068 27.4268C41.7244 27.4268 45.6694 23.1655 45.164 18.1325C44.8614 15.1265 42.9052 12.4968 40.1446 11.2887ZM11.9307 23.5218C10.3707 23.8842 8.73432 23.4146 7.60392 22.2802C6.47189 21.1435 6.00418 19.5045 6.36588 17.9416C6.74396 16.2147 8.09051 14.8646 9.81638 14.482C11.3763 14.1195 13.0128 14.5891 14.1431 15.7237C15.2753 16.8602 15.7431 18.4993 15.3812 20.0622C15.0031 21.7891 13.6565 23.1392 11.9307 23.5218ZM14.5158 11.2887C10.7408 9.63892 7.54665 11.2787 6.52859 11.935C5.99683 12.2804 6.01956 11.1533 5.51053 11.1533H2.51997C2.37087 11.1533 2.25 11.2742 2.25 11.4233V32.2726C2.25 32.4217 2.37089 32.5435 2.51997 32.5435H5.91502C5.98678 32.5435 6.05559 32.5149 6.10624 32.4641C6.1569 32.4133 6.18523 32.3444 6.18499 32.2726V26.3324C6.18499 26.1234 6.41133 25.9915 6.5904 26.0988C7.34031 26.5533 9.06193 27.4268 11.1771 27.4268C16.0966 27.4268 20.0397 23.1655 19.5343 18.1325C19.2316 15.1265 17.2764 12.4968 14.5158 11.2887ZM25.1646 11.1542H21.7623C21.6908 11.1537 21.6221 11.1818 21.5715 11.2321C21.5208 11.2824 21.4923 11.3509 21.4923 11.4223V26.9669C21.4923 27.1169 21.6141 27.2378 21.7632 27.2378H25.1655C25.3147 27.2373 25.4355 27.1161 25.4355 26.9669V11.4242C25.435 11.2748 25.314 11.1538 25.1646 11.1533" fill="#AEB2BA"/>
</svg>
