<svg width="156" height="48" viewBox="0 0 156 48" fill="none" xmlns="http://www.w3.org/2000/svg">
<path d="M79.4885 27.0607C79.4885 28.7302 78.932 30.1467 77.819 31.2597C76.3519 32.7268 73.9742 33.5363 71.0905 33.4857C69.0163 33.4351 66.9421 32.9292 65.7786 32.2209L66.5374 28.0725C67.8022 28.7808 69.9775 29.489 71.5964 29.489C72.9624 29.489 73.8224 28.882 73.8224 27.8702C73.8224 26.9595 73.1647 26.3524 71.5458 25.543C68.9657 24.2782 67.701 22.6594 67.701 20.7369C67.701 16.9933 70.9388 14.4132 75.7448 14.4132C78.2743 14.4132 79.9438 15.0202 80.8544 15.6273L80.0956 19.7251C79.3873 19.1686 77.5155 18.4098 75.4919 18.4098C74.0753 18.4098 73.1647 19.0169 73.1647 19.9781C73.1647 20.6863 73.873 21.2934 75.3401 22.0523C77.3131 23.0641 79.4885 24.5312 79.4885 27.0607ZM152.996 30.9056C153.097 29.6408 152.187 28.629 150.922 28.629C149.657 28.629 148.544 29.6408 148.443 30.9056C148.342 32.0691 149.151 33.1821 150.517 33.1821C151.782 33.1821 152.895 32.1703 152.996 30.9056ZM152.693 30.9056C152.591 31.968 151.63 32.8786 150.517 32.8786C149.455 32.8786 148.696 32.0185 148.797 30.9562C148.898 29.8938 149.859 28.9831 150.972 28.9831C151.984 28.9831 152.743 29.8432 152.693 30.9056ZM151.124 31.2091L151.478 32.2715H151.124L150.77 31.2597H150.264L150.062 32.2715H149.708L150.214 29.5902H151.074C151.478 29.5902 151.782 29.8938 151.782 30.2479C151.833 30.602 151.58 31.0573 151.124 31.2091ZM151.124 29.8938H150.517L150.315 30.9056H150.871C151.175 30.9056 151.428 30.6526 151.478 30.3491C151.529 30.1467 151.377 29.8938 151.124 29.8938ZM141.259 29.2867C143.536 29.2867 145.509 28.7302 147.634 27.516L146.773 32.0691C144.193 33.3845 141.158 33.5363 139.994 33.5363C134.935 33.5363 132.102 30.7538 132.102 25.8465C132.102 23.0135 133.165 20.1804 134.935 18.1062C136.858 15.8297 139.741 14.5143 142.726 14.5143C146.521 14.5143 149.101 16.7403 149.101 20.0287C149.101 21.5464 148.595 22.8111 147.634 23.7723C145.812 25.543 141.31 26.5548 137.263 25.7454C137.01 27.9713 138.73 29.2867 141.259 29.2867ZM137.768 22.1535C140.956 22.204 142.726 21.8499 143.536 21.0911C144.396 20.231 144.092 18.4604 142.018 18.4604C139.691 18.4604 138.173 20.3828 137.768 22.1535ZM116.521 22.9123L114.548 33.1315H109.387L110.045 29.5902C109.337 31.7656 107.566 33.5363 104.581 33.5363C100.989 33.5363 99.3705 30.3491 99.3705 27.1619C99.3705 23.5194 100.787 19.9275 103.165 17.5497C105.188 15.5261 107.768 14.4637 110.652 14.4637C115.762 14.5143 117.431 17.9545 116.521 22.9123ZM111.512 20.5852C111.462 19.3204 110.753 18.6121 109.59 18.6121C107.06 18.6121 104.834 23.0135 104.834 26.0489C104.834 27.9713 105.542 29.1349 106.757 29.1349C108.73 29.1349 110.45 27.0607 111.006 24.0759C111.259 23.0641 111.563 21.3946 111.512 20.5852ZM33.2996 22.9123L31.3266 33.1315H26.1664L26.8241 29.5902C26.1158 31.7656 24.3452 33.5363 21.3603 33.5363C17.7684 33.5363 16.1495 30.3491 16.1495 27.1619C16.1495 23.5194 17.5661 19.9275 19.9438 17.5497C21.9674 15.5261 24.5475 14.4637 27.4312 14.4637C32.5408 14.5143 34.2608 17.9545 33.2996 22.9123ZM28.3418 20.5852C28.2912 19.3204 27.5829 18.6121 26.4194 18.6121C23.8899 18.6121 21.6639 23.0135 21.6639 26.0489C21.6639 27.9713 22.3721 29.1349 23.5863 29.1349C25.5593 29.1349 27.2794 27.0607 27.8359 24.0759C28.0382 23.0641 28.3418 21.3946 28.3418 20.5852ZM99.0163 21.4452C99.0163 25.8971 96.8915 30.4503 93.0467 32.4739C91.6301 33.2327 90.2642 33.5363 89.1006 33.5363C87.1782 33.5363 86.1158 32.828 85.5087 31.715L84.1428 39H78.7296L83.3334 14.8179H88.0888L87.5323 17.7521C88.8983 15.7791 90.8713 14.4637 93.1479 14.4637C96.6892 14.4637 99.0163 17.1956 99.0163 21.4452ZM93.4008 21.8499C93.4008 20.9899 93.1984 18.9157 91.2254 18.9157C89.2018 18.9157 87.4818 21.1922 86.8241 24.683C86.5711 25.8971 85.9641 29.4384 88.443 29.4384C91.276 29.4384 93.4008 25.3912 93.4008 21.8499ZM10.534 18.8651L11.2929 14.8179H6.53741L2.99609 33.4857H8.40925L9.87636 25.796C10.7364 21.2428 13.3165 19.4216 17.0602 20.0287L18.1226 14.4637C14.8848 14.1096 11.8494 15.9309 10.534 18.8651ZM53.991 33.1315L55.8629 23.317L59.7077 33.1315H65.5256L61.529 23.2664L68.7634 14.8179H62.8443L55.8629 23.1653L58.5441 9H53.1816L48.5779 33.1821H53.991V33.1315ZM129.32 14.5143C122.541 14.5143 117.431 19.4722 117.431 26.0489C117.431 30.602 120.467 33.5363 125.121 33.5363C127.144 33.5363 129.067 33.1821 130.332 32.575L131.192 28.0219C129.522 28.8314 128.207 29.1855 126.639 29.1855C124.919 29.1855 123.097 28.2243 123.097 25.4418C123.097 22.204 125.374 18.8651 129.269 18.8651C130.433 18.8651 131.394 19.118 132.254 19.5734L133.114 15.172C132.102 14.7673 130.686 14.5143 129.32 14.5143ZM46.099 14.5143C39.3199 14.5143 34.2103 19.4722 34.2103 26.0489C34.2103 30.602 37.2457 33.5363 41.9 33.5363C43.9236 33.5363 45.846 33.1821 47.1108 32.575L47.9708 28.0219C46.3013 28.8314 44.986 29.1855 43.4177 29.1855C41.6976 29.1855 39.8764 28.2243 39.8764 25.4418C39.8764 22.204 42.1529 18.8651 46.0484 18.8651C47.2119 18.8651 48.1732 19.118 49.0332 19.5734L49.8932 15.172C48.8814 14.7673 47.4649 14.5143 46.099 14.5143Z" fill="#AEB2BA"/>
</svg>
