<svg width="178" height="48" viewBox="0 0 178 48" fill="none" xmlns="http://www.w3.org/2000/svg">
<g clip-path="url(#clip0_1622_6925)">
<mask id="path-1-inside-1_1622_6925" fill="white">
<path d="M49.1257 16.2579L49.3276 16.2648C50.5207 16.3475 51.3033 17.1638 51.3865 18.409L51.3939 18.6331V33.6144C51.3939 35.0806 50.5248 35.991 49.1244 35.991C48.0535 35.991 46.9122 35.4223 46.8106 33.8476L46.8033 33.6157V33.2547C45.4416 35.0251 43.2753 35.991 40.6189 35.991C35.1966 35.991 31.5551 32.0258 31.5551 26.1238C31.5551 20.2231 35.2611 16.2579 40.7788 16.2579C43.095 16.2579 45.0779 17.0345 46.4698 18.4648L46.6963 18.7092V18.6331C46.6963 17.2573 47.7176 16.2579 49.1257 16.2579ZM76.4306 16.2579C81.2721 16.2566 83.7788 19.1578 83.8855 24.8806L83.8891 25.2663V33.5603C83.8891 35.1038 83.0045 35.9897 81.4597 35.9897C80.0007 35.9897 79.1663 35.2072 79.0901 33.7793L79.0844 33.5603V25.2663C79.0844 21.795 78.0193 20.3121 75.5216 20.3121C72.96 20.3121 71.6696 21.8267 71.5865 24.9386L71.5822 25.2663V33.5616C71.5822 35.1051 70.6976 35.991 69.1541 35.991C67.6951 35.991 66.8607 35.2085 66.7845 33.7806L66.7788 33.5616V25.1618C66.7788 21.7189 65.7459 20.3133 63.2147 20.3133C60.7259 20.3133 59.4223 21.6994 59.3354 24.4342L59.3307 24.7324V33.6144C59.3307 35.1025 58.4229 35.991 56.9013 35.991C55.446 35.991 54.611 35.2299 54.5311 33.8392L54.5248 33.6144V18.7402C54.5248 17.0251 55.7459 16.2579 56.9542 16.2579C58.3082 16.2579 59.2959 17.1786 59.3294 18.4591C60.4345 17.0857 62.303 16.2579 64.392 16.2579C67.1979 16.2579 69.274 17.4339 70.4294 19.6686C71.4816 17.4932 73.6402 16.2579 76.4306 16.2579ZM112.886 16.2579C114.058 16.2579 114.941 17.2095 114.941 18.4732C114.941 18.8504 114.866 19.2294 114.705 19.6497L114.598 19.9072L109.199 33.8594C108.633 35.2753 107.714 35.9897 106.465 35.9897C105.235 35.9897 104.362 35.3523 103.869 34.0926L100.202 23.8208L96.5209 33.8556C96.1611 34.8498 95.5357 35.991 93.8916 35.991C92.4728 35.991 91.8097 35.2318 91.3005 34.0721L91.2121 33.8633L85.755 19.9497C85.519 19.3591 85.4158 18.9168 85.4158 18.4732C85.4158 17.087 86.4616 16.2579 87.4713 16.2579C88.4613 16.2579 89.2996 16.9266 89.75 18.0588L89.8349 18.2914L93.8903 29.7498L97.8968 18.3417C98.3455 16.9916 98.8471 16.2579 100.205 16.2579C101.402 16.2579 101.959 16.9958 102.382 18.1254L102.46 18.3417L106.467 29.7498L110.523 18.2876C110.946 17.0187 111.83 16.2579 112.886 16.2579ZM125.104 16.3108C132.425 16.3108 135.024 21.5977 135.024 26.1238C135.024 30.6757 132.425 35.991 125.105 35.991C121.99 35.991 119.408 34.9581 117.639 33.0032C116.055 31.256 115.184 28.8124 115.184 26.1238C115.184 23.4391 116.057 21.0058 117.639 19.2701C119.326 17.4226 121.754 16.4057 124.682 16.3171L125.104 16.3108ZM153.746 12C154.993 12.0007 156.015 12.9613 156.115 14.1829L156.122 14.3778V24.2037L162.402 17.715L162.71 17.3852C163.281 16.7878 163.897 16.2579 164.714 16.2579C165.947 16.2579 166.877 17.1876 166.877 18.4191C166.877 19.2975 166.296 19.9474 165.638 20.6102L165.473 20.7763L160.284 26.1741L165.95 31.844L166.259 32.1648C166.712 32.6571 167.09 33.2045 167.09 33.8839C167.09 35.0264 166.124 35.991 164.981 35.991C164.09 35.991 163.466 35.4119 162.88 34.8056L162.406 34.3172L156.121 27.7808V33.6131C156.12 34.9244 155.057 35.987 153.746 35.9884C152.5 35.9884 151.476 35.0271 151.377 33.8088L151.369 33.6144V14.3752C151.371 13.0638 152.434 12.0014 153.746 12ZM2.37524 12.0026C3.50017 12.0026 4.63796 12.7921 4.74377 14.3053L4.75177 14.5377V16.8459H7.86847C9.12959 16.8459 9.97678 17.6712 9.97678 18.9014C9.97678 20.1389 9.26966 20.8752 8.02645 20.9493L7.81431 20.9555L4.75177 20.9568V29.8156C4.75177 31.5035 5.45454 31.7202 6.06705 31.7202C6.51137 31.7202 6.83538 31.6008 7.08129 31.492L7.19793 31.4391C7.38143 31.3428 7.58518 31.2915 7.79239 31.2895C8.77627 31.2895 9.4597 32.4307 9.4597 33.4545C9.4597 34.0064 9.24564 34.7157 8.64345 35.0509L8.313 35.2356C7.56011 35.6323 6.54984 35.9897 4.9439 35.9897C1.62601 35.9897 0.0913708 34.3826 0.00396817 30.7899L0 30.4578V14.5377C0 12.873 1.19536 12.0013 2.37524 12.0026ZM146.629 16.2577C148.268 16.2577 149.327 17.127 149.327 18.4732C149.327 19.7344 148.566 20.5816 147.433 20.5816C147.212 20.5816 147.042 20.5547 146.878 20.5201L146.716 20.4836C146.469 20.4255 146.214 20.3675 145.774 20.3675C143.095 20.3675 141.907 22.0949 141.839 26.125L141.836 26.4977V33.6144C141.836 35.1747 140.641 35.991 139.461 35.991C138.339 35.991 137.204 35.2543 137.093 33.8429L137.084 33.6144V18.6331C137.084 17.3024 138.129 16.2577 139.461 16.2577C140.698 16.2598 141.727 17.2094 141.828 18.4423C143.032 17.0464 144.786 16.2481 146.629 16.2577ZM21.1773 16.1393C24.9013 16.1393 28.0425 18.4152 29.3759 22.0774C29.7168 23.0153 29.522 24.2164 28.0075 24.8687L27.7821 24.9581L16.8588 28.9336C17.7447 30.7853 19.47 31.8826 21.5229 31.8826C22.3642 31.8726 23.1973 31.7155 23.9845 31.4184C24.9231 31.0883 25.798 30.6022 26.5729 29.9815L26.9658 29.648C27.345 29.3339 27.8198 29.1583 28.312 29.1502C29.2108 29.1502 30.0232 29.7988 30.2037 30.6602C30.3126 31.1737 30.1872 31.6984 29.85 32.1574L29.7034 32.3378L29.6905 32.3482C28.3701 33.4997 26.7053 34.4603 24.8781 35.1244C24.1954 35.3722 23.4955 35.5696 22.784 35.715C22.0025 35.8803 21.2062 35.9654 20.4075 35.969C16.3727 35.969 13.2044 33.6222 11.715 29.5293C10.7956 27.0019 10.7737 24.3817 11.6557 22.1534C12.6306 19.6957 14.6241 17.8569 17.4249 16.8382C18.7002 16.374 19.9626 16.1393 21.1773 16.1393ZM125.104 20.1534C121.996 20.1534 119.988 22.4964 119.988 26.1238C119.988 29.8723 121.948 32.2012 125.104 32.2012C128.211 32.2012 130.219 29.8156 130.219 26.1238C130.219 22.4964 128.211 20.1534 125.104 20.1534ZM41.5809 20.5287C38.5222 20.5287 36.4668 22.7982 36.4668 26.1767C36.4668 29.4932 38.5003 31.7202 41.528 31.7202C45.0612 31.7202 46.6434 28.9091 46.6434 26.1238C46.6434 22.2579 44.1006 20.5287 41.5809 20.5287ZM20.5803 19.9819C20.1181 19.9819 19.6427 20.0529 19.1634 20.1935L18.8033 20.3121C16.022 21.3243 15.4067 23.6708 15.7321 25.5538L15.7705 25.7537L24.6241 22.5313C23.9394 21.2585 22.557 19.9819 20.5803 19.9819Z"/>
</mask>
<path d="M49.1257 16.2579L49.3276 16.2648C50.5207 16.3475 51.3033 17.1638 51.3865 18.409L51.3939 18.6331V33.6144C51.3939 35.0806 50.5248 35.991 49.1244 35.991C48.0535 35.991 46.9122 35.4223 46.8106 33.8476L46.8033 33.6157V33.2547C45.4416 35.0251 43.2753 35.991 40.6189 35.991C35.1966 35.991 31.5551 32.0258 31.5551 26.1238C31.5551 20.2231 35.2611 16.2579 40.7788 16.2579C43.095 16.2579 45.0779 17.0345 46.4698 18.4648L46.6963 18.7092V18.6331C46.6963 17.2573 47.7176 16.2579 49.1257 16.2579ZM76.4306 16.2579C81.2721 16.2566 83.7788 19.1578 83.8855 24.8806L83.8891 25.2663V33.5603C83.8891 35.1038 83.0045 35.9897 81.4597 35.9897C80.0007 35.9897 79.1663 35.2072 79.0901 33.7793L79.0844 33.5603V25.2663C79.0844 21.795 78.0193 20.3121 75.5216 20.3121C72.96 20.3121 71.6696 21.8267 71.5865 24.9386L71.5822 25.2663V33.5616C71.5822 35.1051 70.6976 35.991 69.1541 35.991C67.6951 35.991 66.8607 35.2085 66.7845 33.7806L66.7788 33.5616V25.1618C66.7788 21.7189 65.7459 20.3133 63.2147 20.3133C60.7259 20.3133 59.4223 21.6994 59.3354 24.4342L59.3307 24.7324V33.6144C59.3307 35.1025 58.4229 35.991 56.9013 35.991C55.446 35.991 54.611 35.2299 54.5311 33.8392L54.5248 33.6144V18.7402C54.5248 17.0251 55.7459 16.2579 56.9542 16.2579C58.3082 16.2579 59.2959 17.1786 59.3294 18.4591C60.4345 17.0857 62.303 16.2579 64.392 16.2579C67.1979 16.2579 69.274 17.4339 70.4294 19.6686C71.4816 17.4932 73.6402 16.2579 76.4306 16.2579ZM112.886 16.2579C114.058 16.2579 114.941 17.2095 114.941 18.4732C114.941 18.8504 114.866 19.2294 114.705 19.6497L114.598 19.9072L109.199 33.8594C108.633 35.2753 107.714 35.9897 106.465 35.9897C105.235 35.9897 104.362 35.3523 103.869 34.0926L100.202 23.8208L96.5209 33.8556C96.1611 34.8498 95.5357 35.991 93.8916 35.991C92.4728 35.991 91.8097 35.2318 91.3005 34.0721L91.2121 33.8633L85.755 19.9497C85.519 19.3591 85.4158 18.9168 85.4158 18.4732C85.4158 17.087 86.4616 16.2579 87.4713 16.2579C88.4613 16.2579 89.2996 16.9266 89.75 18.0588L89.8349 18.2914L93.8903 29.7498L97.8968 18.3417C98.3455 16.9916 98.8471 16.2579 100.205 16.2579C101.402 16.2579 101.959 16.9958 102.382 18.1254L102.46 18.3417L106.467 29.7498L110.523 18.2876C110.946 17.0187 111.83 16.2579 112.886 16.2579ZM125.104 16.3108C132.425 16.3108 135.024 21.5977 135.024 26.1238C135.024 30.6757 132.425 35.991 125.105 35.991C121.99 35.991 119.408 34.9581 117.639 33.0032C116.055 31.256 115.184 28.8124 115.184 26.1238C115.184 23.4391 116.057 21.0058 117.639 19.2701C119.326 17.4226 121.754 16.4057 124.682 16.3171L125.104 16.3108ZM153.746 12C154.993 12.0007 156.015 12.9613 156.115 14.1829L156.122 14.3778V24.2037L162.402 17.715L162.71 17.3852C163.281 16.7878 163.897 16.2579 164.714 16.2579C165.947 16.2579 166.877 17.1876 166.877 18.4191C166.877 19.2975 166.296 19.9474 165.638 20.6102L165.473 20.7763L160.284 26.1741L165.95 31.844L166.259 32.1648C166.712 32.6571 167.09 33.2045 167.09 33.8839C167.09 35.0264 166.124 35.991 164.981 35.991C164.09 35.991 163.466 35.4119 162.88 34.8056L162.406 34.3172L156.121 27.7808V33.6131C156.12 34.9244 155.057 35.987 153.746 35.9884C152.5 35.9884 151.476 35.0271 151.377 33.8088L151.369 33.6144V14.3752C151.371 13.0638 152.434 12.0014 153.746 12ZM2.37524 12.0026C3.50017 12.0026 4.63796 12.7921 4.74377 14.3053L4.75177 14.5377V16.8459H7.86847C9.12959 16.8459 9.97678 17.6712 9.97678 18.9014C9.97678 20.1389 9.26966 20.8752 8.02645 20.9493L7.81431 20.9555L4.75177 20.9568V29.8156C4.75177 31.5035 5.45454 31.7202 6.06705 31.7202C6.51137 31.7202 6.83538 31.6008 7.08129 31.492L7.19793 31.4391C7.38143 31.3428 7.58518 31.2915 7.79239 31.2895C8.77627 31.2895 9.4597 32.4307 9.4597 33.4545C9.4597 34.0064 9.24564 34.7157 8.64345 35.0509L8.313 35.2356C7.56011 35.6323 6.54984 35.9897 4.9439 35.9897C1.62601 35.9897 0.0913708 34.3826 0.00396817 30.7899L0 30.4578V14.5377C0 12.873 1.19536 12.0013 2.37524 12.0026ZM146.629 16.2577C148.268 16.2577 149.327 17.127 149.327 18.4732C149.327 19.7344 148.566 20.5816 147.433 20.5816C147.212 20.5816 147.042 20.5547 146.878 20.5201L146.716 20.4836C146.469 20.4255 146.214 20.3675 145.774 20.3675C143.095 20.3675 141.907 22.0949 141.839 26.125L141.836 26.4977V33.6144C141.836 35.1747 140.641 35.991 139.461 35.991C138.339 35.991 137.204 35.2543 137.093 33.8429L137.084 33.6144V18.6331C137.084 17.3024 138.129 16.2577 139.461 16.2577C140.698 16.2598 141.727 17.2094 141.828 18.4423C143.032 17.0464 144.786 16.2481 146.629 16.2577ZM21.1773 16.1393C24.9013 16.1393 28.0425 18.4152 29.3759 22.0774C29.7168 23.0153 29.522 24.2164 28.0075 24.8687L27.7821 24.9581L16.8588 28.9336C17.7447 30.7853 19.47 31.8826 21.5229 31.8826C22.3642 31.8726 23.1973 31.7155 23.9845 31.4184C24.9231 31.0883 25.798 30.6022 26.5729 29.9815L26.9658 29.648C27.345 29.3339 27.8198 29.1583 28.312 29.1502C29.2108 29.1502 30.0232 29.7988 30.2037 30.6602C30.3126 31.1737 30.1872 31.6984 29.85 32.1574L29.7034 32.3378L29.6905 32.3482C28.3701 33.4997 26.7053 34.4603 24.8781 35.1244C24.1954 35.3722 23.4955 35.5696 22.784 35.715C22.0025 35.8803 21.2062 35.9654 20.4075 35.969C16.3727 35.969 13.2044 33.6222 11.715 29.5293C10.7956 27.0019 10.7737 24.3817 11.6557 22.1534C12.6306 19.6957 14.6241 17.8569 17.4249 16.8382C18.7002 16.374 19.9626 16.1393 21.1773 16.1393ZM125.104 20.1534C121.996 20.1534 119.988 22.4964 119.988 26.1238C119.988 29.8723 121.948 32.2012 125.104 32.2012C128.211 32.2012 130.219 29.8156 130.219 26.1238C130.219 22.4964 128.211 20.1534 125.104 20.1534ZM41.5809 20.5287C38.5222 20.5287 36.4668 22.7982 36.4668 26.1767C36.4668 29.4932 38.5003 31.7202 41.528 31.7202C45.0612 31.7202 46.6434 28.9091 46.6434 26.1238C46.6434 22.2579 44.1006 20.5287 41.5809 20.5287ZM20.5803 19.9819C20.1181 19.9819 19.6427 20.0529 19.1634 20.1935L18.8033 20.3121C16.022 21.3243 15.4067 23.6708 15.7321 25.5538L15.7705 25.7537L24.6241 22.5313C23.9394 21.2585 22.557 19.9819 20.5803 19.9819Z" fill="#AEB2BA" stroke="black" stroke-width="2" mask="url(#path-1-inside-1_1622_6925)"/>
<path d="M174.015 35.5001C171.991 35.4972 170.351 33.8568 170.348 31.8325C170.351 29.808 171.991 28.1676 174.016 28.1648C176.04 28.167 177.682 29.8076 177.684 31.8325C177.682 33.8574 176.04 35.498 174.015 35.5001Z" fill="#AEB2BA" stroke="black"/>
</g>
<defs>
<clipPath id="clip0_1622_6925">
<rect width="178" height="48" fill="white"/>
</clipPath>
</defs>
</svg>
