<svg width="24" height="27" viewBox="0 0 24 27" fill="none" xmlns="http://www.w3.org/2000/svg">
<path d="M3.25 27C2.5625 27 1.97396 26.7552 1.48438 26.2656C0.994792 25.776 0.75 25.1875 0.75 24.5V9.5C0.75 8.8125 0.994792 8.22396 1.48438 7.73438C1.97396 7.24479 2.5625 7 3.25 7H5.75C5.75 5.27083 6.35938 3.79688 7.57812 2.57812C8.79688 1.35937 10.2708 0.75 12 0.75C13.7292 0.75 15.2031 1.35937 16.4219 2.57812C17.6406 3.79688 18.25 5.27083 18.25 7H20.75C21.4375 7 22.026 7.24479 22.5156 7.73438C23.0052 8.22396 23.25 8.8125 23.25 9.5V24.5C23.25 25.1875 23.0052 25.776 22.5156 26.2656C22.026 26.7552 21.4375 27 20.75 27H3.25ZM3.25 24.5H20.75V9.5H3.25V24.5ZM12 17C13.7292 17 15.2031 16.3906 16.4219 15.1719C17.6406 13.9531 18.25 12.4792 18.25 10.75H15.75C15.75 11.7917 15.3854 12.6771 14.6562 13.4062C13.9271 14.1354 13.0417 14.5 12 14.5C10.9583 14.5 10.0729 14.1354 9.34375 13.4062C8.61458 12.6771 8.25 11.7917 8.25 10.75H5.75C5.75 12.4792 6.35938 13.9531 7.57812 15.1719C8.79688 16.3906 10.2708 17 12 17ZM8.25 7H15.75C15.75 5.95833 15.3854 5.07292 14.6562 4.34375C13.9271 3.61458 13.0417 3.25 12 3.25C10.9583 3.25 10.0729 3.61458 9.34375 4.34375C8.61458 5.07292 8.25 5.95833 8.25 7Z" fill="#252525"/>
</svg>
